<?xml version="1.0" encoding="UTF-8" standalone="no"?>
<svg
   id="Layer_1"
   data-name="Layer 1"
   viewBox="0 0 319.99 79.089999"
   version="1.1"
   sodipodi:docname="Ajonee-01.svg"
   width="319.98999"
   height="79.089996"
   inkscape:version="1.1.2 (0a00cf5339, 2022-02-04)"
   xmlns:inkscape="http://www.inkscape.org/namespaces/inkscape"
   xmlns:sodipodi="http://sodipodi.sourceforge.net/DTD/sodipodi-0.dtd"
   xmlns="http://www.w3.org/2000/svg"
   xmlns:svg="http://www.w3.org/2000/svg">
  <sodipodi:namedview
     id="namedview55"
     pagecolor="#ffffff"
     bordercolor="#666666"
     borderopacity="1.0"
     inkscape:pageshadow="2"
     inkscape:pageopacity="0.0"
     inkscape:pagecheckerboard="0"
     showgrid="false"
     fit-margin-top="0"
     fit-margin-left="0"
     fit-margin-right="0"
     fit-margin-bottom="0"
     inkscape:zoom="1.0879689"
     inkscape:cx="143.38645"
     inkscape:cy="39.523189"
     inkscape:window-width="1920"
     inkscape:window-height="970"
     inkscape:window-x="0"
     inkscape:window-y="0"
     inkscape:window-maximized="1"
     inkscape:current-layer="Layer_1" />
  <defs
     id="defs4">
    <style
       id="style2">
      .cls-1 {
        fill: #23a4dd;
      }

      .cls-2 {
        fill: red;
      }
    </style>
  </defs>
  <g
     id="g26"
     transform="translate(-194.34,-314.79)">
    <g
       id="g10">
      <path
         class="cls-1"
         d="m 195.24,386.44 h 82.26 v 1.81 h -82.26 c -0.51,0 -0.9,-0.4 -0.9,-0.9 0,-0.5 0.4,-0.9 0.9,-0.9 z"
         id="path6" />
      <path
         class="cls-1"
         d="m 514.33,387.35 c 0,0.51 -0.42,0.9 -0.9,0.9 h -82.26 v -1.81 h 82.26 c 0.49,0 0.9,0.4 0.9,0.9 z"
         id="path8" />
    </g>
    <g
       id="g24">
      <path
         class="cls-1"
         d="M 289.29,393.87 V 379 h 8.21 c 6.45,0 9.67,2.48 9.67,7.44 0,4.96 -3.22,7.43 -9.67,7.43 z m 4.34,-2.37 h 3.31 c 3.93,0 5.9,-1.69 5.9,-5.06 0,-3.37 -1.96,-5.06 -5.9,-5.06 h -3.31 z"
         id="path12" />
      <path
         class="cls-1"
         d="m 319.59,379 v 14.87 H 315.2 V 379 Z"
         id="path14" />
      <path
         class="cls-1"
         d="M 327.84,393.87 V 379 h 15.43 v 2.42 h -11.04 v 3.92 h 9.26 v 2.31 h -9.26 v 3.81 h 11.04 v 2.42 h -15.43 z"
         id="path16" />
      <path
         class="cls-1"
         d="m 355.83,383.76 v 10.11 h -4.39 V 379 h 5.01 l 8.84,10.92 V 379 h 4.39 v 14.87 h -5.3 l -8.54,-10.11 z"
         id="path18" />
      <path
         class="cls-1"
         d="M 377.73,393.87 V 379 h 15.43 v 2.42 h -11.04 v 3.92 h 9.26 v 2.31 h -9.26 v 3.81 h 11.04 v 2.42 h -15.43 z"
         id="path20" />
      <path
         class="cls-1"
         d="m 405.73,383.76 v 10.11 h -4.39 V 379 h 5.01 l 8.84,10.92 V 379 h 4.39 v 14.87 h -5.3 l -8.54,-10.11 z"
         id="path22" />
    </g>
  </g>
  <g
     id="g34"
     transform="translate(-194.34,-314.79)">
    <path
       class="cls-1"
       d="m 418.89,315.95 h 39.15 v 8.28 H 421.9 v 13.93 h 28.61 v 8.28 H 421.9 v 13.93 h 36.14 v 8.28 h -39.15 c -3.61,0 -6.02,-2.41 -6.02,-6.02 v -40.66 c 0,-3.61 2.41,-6.02 6.02,-6.02 z"
       id="path28" />
    <path
       class="cls-1"
       d="m 513.61,336.66 v 40.66 c 0,3.61 -2.41,6.02 -6.02,6.02 h -39.15 v -8.28 h 36.14 v -13.93 h -28.61 v -8.28 h 28.61 v -13.93 h -36.14 v -8.28 h 39.15 c 3.61,0 6.02,2.41 6.02,6.02 z"
       id="path30" />
    <path
       class="cls-1"
       d="m 272.6,368.73 c -13.76,0 -22.08,-5.22 -22.08,-16.26 v -1.13 h 9.07 v 0.08 c 0,6.35 4.31,8.24 12.55,8.24 h 4.76 c 10.36,0 14.44,-6.88 14.44,-17.24 v -26.61 h 9.07 v 26.69 c 0,15.73 -8.47,26.24 -24.19,26.24 h -3.63 z"
       id="path32" />
  </g>
  <g
     id="g40"
     transform="translate(-194.34,-314.79)">
    <path
       class="cls-2"
       d="m 194.66,369.51 21.26,-49.86 c 1.08,-2.55 3.63,-4.25 6.49,-4.25 2.86,0 5.26,1.7 6.34,4.25 l 21.26,49.86 h -10.05 l -17.62,-41.28 -17.62,41.28 h -10.05 z"
       id="path36" />
    <path
       class="cls-1"
       d="m 250,369.46 h -10.05 l -17.75,-40.93 4.7,-11.41 c 0.42,0.51 1.58,1.85 1.85,2.48 l 21.26,49.86 z"
       id="path38" />
  </g>
  <g
     id="g52"
     transform="translate(-194.34,-314.79)">
    <path
       class="cls-2"
       d="m 394.05,315.95 v 38.1 l -28.24,-36.44 c -1.13,-1.43 -3.17,-2.41 -4.97,-2.41 -3.61,0 -5.96,2.35 -5.96,5.87 v 47.58 h 9.04 v -38.1 l 28.24,36.38 c 1.13,1.51 3.17,2.48 5.03,2.48 3.63,0 5.87,-2.33 5.87,-5.79 v -47.66 h -9.02 z"
       id="path42" />
    <g
       id="g48">
      <path
         class="cls-2"
         d="m 341.46,319.11 c -3.57,-2.66 -8.52,-4.32 -13.97,-4.32 -10.89,0 -19.72,6.61 -19.72,14.75 v 25.72 c 0,8.16 8.83,14.75 19.72,14.75 10.89,0 19.76,-6.59 19.76,-14.75 v -25.72 c 0,-4.09 -2.22,-7.76 -5.79,-10.43 z m -15.44,15.82 c -0.38,-0.06 -0.76,-0.15 -1.13,-0.25 -1.53,-0.4 -2.98,-1.09 -4.34,-1.99 -1.07,-0.73 -2.08,-1.57 -3.04,-2.5 -0.88,-0.86 -1.72,-1.78 -2.52,-2.77 -0.04,-0.04 -0.06,-0.06 -0.08,-0.1 0.02,-0.06 0.06,-0.08 0.08,-0.13 0.31,-0.4 0.65,-0.78 0.99,-1.15 1.24,-1.38 2.6,-2.62 4.07,-3.65 1.03,-0.73 2.12,-1.36 3.25,-1.85 0.76,-0.34 1.55,-0.59 2.35,-0.78 0.44,-0.08 0.86,-0.17 1.3,-0.21 0.61,-0.06 1.24,-0.08 1.85,-0.04 0.42,0.02 0.84,0.08 1.26,0.15 1.62,0.31 3.13,0.99 4.55,1.95 0.97,0.63 1.85,1.41 2.66,2.24 1.03,1.03 1.93,2.16 2.79,3.38 0.02,0.02 0.04,0.06 0.06,0.08 -0.04,0.04 -0.06,0.1 -0.1,0.15 -0.42,0.63 -0.88,1.22 -1.36,1.76 -1.03,1.17 -2.12,2.2 -3.31,3.08 -1.07,0.8 -2.22,1.45 -3.42,1.93 -0.67,0.25 -1.34,0.46 -2.03,0.61 -0.34,0.06 -0.67,0.1 -1.01,0.15 -0.36,0.04 -0.73,0.06 -1.09,0.06 -0.31,0 -0.61,-0.02 -0.92,-0.04 -0.27,-0.02 -0.57,-0.04 -0.84,-0.08 z"
         id="path44" />
      <circle
         class="cls-2"
         cx="327.51001"
         cy="327.95001"
         r="4.8000002"
         id="circle46" />
    </g>
    <circle
       class="cls-2"
       cx="327.51001"
       cy="327.95001"
       r="2.76"
       id="circle50" />
  </g>
</svg>
