<?xml version="1.0" standalone="no"?>
<!DOCTYPE svg PUBLIC "-//W3C//DTD SVG 20010904//EN"
 "http://www.w3.org/TR/2001/REC-SVG-20010904/DTD/svg10.dtd">
<svg version="1.0" xmlns="http://www.w3.org/2000/svg"
 width="124.000000pt" height="70.000000pt" viewBox="0 0 124.000000 70.000000"
 preserveAspectRatio="xMidYMid meet">

<g transform="translate(0.000000,70.000000) scale(0.100000,-0.100000)"
fill="#000000" stroke="none">
<path d="M638 688 c-21 -18 -158 -259 -158 -280 0 -20 33 -40 53 -32 8 3 35
42 60 87 74 133 64 131 127 19 47 -81 60 -98 83 -100 32 -4 32 -2 8 40 -97
169 -115 206 -112 226 5 42 -29 65 -61 40z"/>
<path d="M634 405 c-22 -42 -11 -70 27 -70 29 0 37 32 19 76 -16 37 -23 37
-46 -6z"/>
<path d="M193 192 c-11 -7 -43 -72 -43 -87 0 -3 9 -1 20 5 11 6 20 20 20 31 0
11 7 22 15 25 8 4 15 12 15 20 0 16 -9 18 -27 6z"/>
<path d="M80 145 c-17 -21 -5 -59 25 -75 19 -10 23 -18 19 -37 -5 -17 -2 -23
10 -23 9 0 16 7 16 15 0 8 5 15 12 15 6 0 4 7 -5 18 -10 10 -14 22 -10 27 5 4
3 5 -4 1 -7 -4 -19 4 -29 19 -13 20 -14 28 -4 40 10 12 10 15 -3 15 -8 0 -20
-7 -27 -15z"/>
<path d="M432 83 c3 -88 25 -115 30 -37 4 67 28 71 28 5 0 -39 4 -51 15 -51
13 0 15 11 13 58 -3 55 -4 57 -30 57 -23 -1 -28 4 -28 22 0 14 -6 23 -15 23
-13 0 -15 -13 -13 -77z"/>
<path d="M329 104 c-11 -13 -9 -15 12 -12 31 4 37 -15 7 -22 -14 -4 -24 -15
-26 -29 -5 -29 11 -46 35 -37 14 6 15 9 4 16 -8 4 -11 15 -8 24 9 22 30 20 23
-1 -7 -23 8 -48 23 -39 15 10 14 89 -1 104 -17 17 -53 15 -69 -4z"/>
<path d="M563 113 c-24 -9 -13 -25 12 -19 18 5 25 2 25 -9 0 -8 -9 -15 -20
-15 -27 0 -43 -32 -26 -55 9 -13 19 -16 32 -10 12 5 15 9 7 12 -15 5 -18 43
-4 43 5 0 11 -14 15 -31 8 -41 30 -32 34 14 5 62 -25 91 -75 70z"/>
<path d="M164 89 c-12 -20 18 -59 55 -69 19 -5 37 -7 40 -5 2 3 -1 5 -7 5 -19
0 -73 52 -68 66 6 17 -10 19 -20 3z"/>
</g>
</svg>
