<?xml version="1.0" standalone="no"?>
<!DOCTYPE svg PUBLIC "-//W3C//DTD SVG 20010904//EN"
 "http://www.w3.org/TR/2001/REC-SVG-20010904/DTD/svg10.dtd">
<svg version="1.0" xmlns="http://www.w3.org/2000/svg"
 width="84.000000pt" height="84.000000pt" viewBox="0 0 84.000000 84.000000"
 preserveAspectRatio="xMidYMid meet">
<metadata>
Created by potrace 1.14, written by Peter Selinger 2001-2017
</metadata>
<g transform="translate(0.000000,84.000000) scale(0.100000,-0.100000)"
fill="#000000" stroke="none">
<path d="M251 710 c-51 -17 -76 -34 -119 -80 -91 -97 -87 -294 9 -386 l29 -28
50 24 c53 25 58 31 36 49 -10 9 -11 20 -3 49 9 34 13 38 36 34 14 -3 42 -15
62 -28 39 -24 37 -24 122 29 27 16 44 33 38 36 -18 12 -18 65 1 97 12 21 15
35 8 39 -5 3 -10 11 -10 16 0 6 5 7 10 4 6 -3 10 1 10 9 0 9 4 16 9 16 17 0
23 -21 10 -36 -10 -12 -8 -18 10 -31 12 -8 27 -25 32 -37 7 -16 8 -12 4 17
-23 153 -197 257 -344 207z m155 -13 c27 -11 29 -14 19 -34 -10 -19 -14 -20
-35 -10 -26 13 -47 58 -27 56 7 0 26 -6 43 -12z m-158 -43 c-36 -19 -35 -29 2
-48 30 -14 35 -11 31 22 -2 16 12 15 54 -2 39 -17 46 -36 14 -36 -16 0 -19 -4
-14 -20 4 -11 3 -20 -2 -19 -22 4 -33 -4 -52 -37 -12 -19 -18 -40 -15 -46 3
-5 -3 -4 -14 3 -10 7 -27 9 -36 6 -23 -9 -32 -37 -15 -48 8 -5 15 -4 18 2 4
13 30 -22 30 -41 0 -12 -2 -11 -10 3 -5 9 -18 17 -27 17 -10 0 -32 16 -50 35
-42 44 -60 128 -34 160 29 34 86 63 127 64 16 0 15 -2 -7 -15z"/>
<path d="M645 565 c-47 -12 -48 -13 -15 -14 52 -2 67 -14 51 -43 -30 -54 -183
-162 -346 -243 -111 -56 -145 -67 -200 -69 -27 -1 -30 2 -28 28 l2 30 -31 -31
c-17 -17 -32 -43 -33 -57 -3 -27 2 -30 56 -26 14 0 31 -6 39 -14 10 -13 35
-16 126 -16 107 0 114 -1 114 -20 0 -28 18 -25 32 5 20 43 0 53 -110 53 -53 0
-104 1 -112 2 -8 0 23 16 70 35 46 20 89 40 94 45 26 26 46 9 88 -77 33 -67
48 -88 66 -90 22 -3 30 11 12 22 -27 16 -3 25 70 25 68 0 81 3 90 20 6 10 11
89 13 174 2 141 4 157 23 178 69 75 38 110 -71 83z m8 -242 c-1 -37 -2 -92 -2
-120 l-1 -53 -84 0 -84 0 -36 44 c-20 24 -36 49 -36 54 0 5 29 26 64 47 35 20
88 56 117 79 62 49 65 47 62 -51z"/>
</g>
</svg>
